# xmcd
#
# Track frame offsets:
#	150
#	16869
#	30388
#	47372
#	62771
#	81806
#	99107
#	116271
#	133941
#	149371
#	165520
#
# Disc length: 2414 seconds
#
# Revision: 1
# Processed by: cddbd v1.5.2PL0 Copyright (c) Steve Scherf et al.
# Submitted via: audiograbber 1.83.01
#
DISCID=7d096c0b
DTITLE=Heike Schäfer - Ein neuer Morgen beginnt
DYEAR=2005
DGENRE=Schlager
TTITLE0=Ein neuer Morgen beginnt
TTITLE1=ich brauch ein bisschen Zärtlichkeit
TTITLE2=Wenn Du bei mir bist
TTITLE3=Irgendwann vielleicht
TTITLE4=La Paloma
TTITLE5=Wenn Du mich liebst
TTITLE6=Die Liebe einer Frau
TTITLE7=Wann kommst Du wieder zurück
TTITLE8=Doch mir kommen die Tränen
TTITLE9=Am Ende bleiben Tränen
TTITLE10=Der Sommer ist vorbei
EXTD=
EXTT0=
EXTT1=
EXTT2=
EXTT3=
EXTT4=
EXTT5=
EXTT6=
EXTT7=
EXTT8=
EXTT9=
EXTT10=
PLAYORDER=
